<svg width="414" height="281" viewBox="0 0 414 281" fill="none" xmlns="http://www.w3.org/2000/svg">
<g filter="url(#filter0_f_240_6192)">
<g filter="url(#filter1_d_240_6192)">
<path d="M283.345 249H91.913C73.3426 248.986 55.4975 241.789 42.1136 228.915C28.7297 216.041 20.8447 198.489 20.1092 179.933C19.3737 161.377 25.8447 143.256 38.1676 129.364C50.4906 115.471 67.71 106.884 86.221 105.4C88.8608 86.76 97.2781 69.4167 110.289 55.81C123.299 42.2033 140.248 33.018 158.752 29.5464C177.255 26.0748 196.381 28.4916 213.439 36.4567C230.497 44.4219 244.628 57.5346 253.845 73.95C270.75 68.0981 289.015 67.4143 306.31 71.9857C323.605 76.5571 339.146 86.1765 350.952 99.617C362.757 113.057 370.292 129.71 372.594 147.45C374.896 165.19 371.862 183.214 363.879 199.223C359.194 213.688 350.047 226.296 337.751 235.239C325.455 244.182 310.641 249 295.437 249H283.345Z" fill="url(#paint0_linear_240_6192)"/>
<path d="M295.437 248C303.157 248 310.748 246.767 317.998 244.336C325.009 241.985 331.59 238.554 337.56 234.139C343.462 229.775 348.635 224.547 352.936 218.6C357.29 212.58 360.652 205.957 362.928 198.915L362.951 198.843L362.985 198.775C366.011 192.728 368.341 186.33 369.911 179.761C371.526 173 372.345 166.015 372.345 158.999C372.345 152.96 371.737 146.925 370.537 141.062C369.368 135.348 367.623 129.728 365.352 124.357C363.121 119.084 360.361 113.997 357.146 109.24C353.962 104.527 350.306 100.095 346.278 96.0671C342.25 92.0394 337.819 88.3828 333.106 85.1988C328.348 81.9844 323.261 79.2236 317.988 76.9932C312.617 74.7216 306.997 72.9769 301.283 71.8077C295.42 70.6078 289.385 69.9995 283.345 69.9995C273.346 69.9995 263.531 71.6451 254.172 74.8907L253.383 75.1646L252.973 74.4361C245.357 60.8943 234.279 49.5217 220.937 41.5478C214.189 37.5152 206.94 34.399 199.391 32.2857C191.602 30.1054 183.512 29 175.345 29C164.361 29 153.638 30.977 143.475 34.876C133.657 38.6427 124.65 44.0837 116.705 51.048C108.806 57.9722 102.251 66.1422 97.2213 75.3308C92.0685 84.7451 88.7006 94.9072 87.2113 105.535L87.0998 106.33L86.299 106.393C77.3408 107.094 68.7219 109.453 60.6818 113.403C52.8694 117.242 45.8932 122.434 39.947 128.834C27.7289 141.987 21 159.123 21 177.087C21 186.66 22.8748 195.947 26.5723 204.689C28.3495 208.89 30.5492 212.943 33.1102 216.734C35.6472 220.489 38.5607 224.02 41.7699 227.23C44.9791 230.439 48.5104 233.352 52.2655 235.889C56.0565 238.45 60.109 240.65 64.3107 242.427C73.0525 246.125 82.3392 248 91.9127 248H283.345H295.437ZM295.437 249H283.345H91.9127C52.1966 249 20 216.803 20 177.087C20 139.286 49.1647 108.297 86.221 105.396C92.3504 61.6573 129.917 28 175.345 28C209.048 28 238.422 46.5232 253.845 73.946C263.087 70.7407 273.012 68.9995 283.345 68.9995C333.051 68.9995 373.345 109.294 373.345 158.999C373.345 173.456 369.936 187.118 363.879 199.223C354.544 228.108 327.431 249 295.437 249Z" fill="white" fill-opacity="0.5"/>
</g>
</g>
<defs>
<filter id="filter0_f_240_6192" x="16" y="24" width="361.345" height="229" filterUnits="userSpaceOnUse" color-interpolation-filters="sRGB">
<feFlood flood-opacity="0" result="BackgroundImageFix"/>
<feBlend mode="normal" in="SourceGraphic" in2="BackgroundImageFix" result="shape"/>
<feGaussianBlur stdDeviation="2" result="effect1_foregroundBlur_240_6192"/>
</filter>
<filter id="filter1_d_240_6192" x="1.52588e-05" y="-3.05176e-05" width="413.345" height="281" filterUnits="userSpaceOnUse" color-interpolation-filters="sRGB">
<feFlood flood-opacity="0" result="BackgroundImageFix"/>
<feColorMatrix in="SourceAlpha" type="matrix" values="0 0 0 0 0 0 0 0 0 0 0 0 0 0 0 0 0 0 127 0" result="hardAlpha"/>
<feOffset dx="10" dy="2"/>
<feGaussianBlur stdDeviation="15"/>
<feColorMatrix type="matrix" values="0 0 0 0 0.258824 0 0 0 0 0.627451 0 0 0 0 0.941176 0 0 0 0.596 0"/>
<feBlend mode="normal" in2="BackgroundImageFix" result="effect1_dropShadow_240_6192"/>
<feBlend mode="normal" in="SourceGraphic" in2="effect1_dropShadow_240_6192" result="shape"/>
</filter>
<linearGradient id="paint0_linear_240_6192" x1="196.698" y1="28.0025" x2="299.341" y2="276.166" gradientUnits="userSpaceOnUse">
<stop stop-color="white" stop-opacity="0.604"/>
<stop offset="1" stop-color="white" stop-opacity="0.2"/>
</linearGradient>
</defs>
</svg>
