<svg width="423" height="347" viewBox="0 0 423 347" fill="none" xmlns="http://www.w3.org/2000/svg">
<g filter="url(#filter0_f_240_5547)">
<path d="M108.148 214.763C162.548 214.763 206.648 170.439 206.648 115.763C206.648 61.0868 162.548 16.763 108.148 16.763C53.7479 16.763 9.64795 61.0868 9.64795 115.763C9.64795 170.439 53.7479 214.763 108.148 214.763Z" fill="#FA9E42"/>
<g filter="url(#filter1_f_240_5547)">
<path d="M101.03 101.684C133.767 84.2963 152.077 54.7096 141.928 35.6003C131.778 16.4911 97.0115 15.0956 64.2749 32.4835C31.5383 49.8713 13.228 79.4581 23.3778 98.5673C33.5275 117.677 68.2938 119.072 101.03 101.684Z" fill="#F8E36F"/>
</g>
<path d="M107.818 289.937C109.418 289.955 125.636 315.278 125.636 325.119C125.636 329.845 123.759 334.377 120.417 337.718C117.076 341.06 112.544 342.937 107.818 342.937C103.092 342.937 98.5603 341.06 95.2188 337.718C91.8772 334.377 90 329.845 90 325.119C90 315.279 106.219 289.919 107.818 289.937Z" fill="#42A0F0"/>
<path d="M94.2331 331.779C96.0135 332.323 98.2763 330.084 99.2871 326.778C100.298 323.471 99.674 320.35 97.8936 319.806C96.1132 319.261 93.8505 321.5 92.8397 324.806C91.8289 328.113 92.4527 331.234 94.2331 331.779Z" fill="white"/>
<path d="M200.818 289.937C202.418 289.955 218.636 315.278 218.636 325.119C218.636 329.845 216.759 334.377 213.417 337.718C210.076 341.06 205.544 342.937 200.818 342.937C196.092 342.937 191.56 341.06 188.219 337.718C184.877 334.377 183 329.845 183 325.119C183 315.279 199.219 289.919 200.818 289.937Z" fill="#42A0F0"/>
<path d="M187.233 331.779C189.014 332.323 191.276 330.084 192.287 326.778C193.298 323.471 192.674 320.35 190.894 319.806C189.113 319.261 186.85 321.5 185.84 324.806C184.829 328.113 185.453 331.234 187.233 331.779Z" fill="white"/>
<path d="M293.818 289.937C295.418 289.955 311.636 315.278 311.636 325.119C311.636 329.845 309.759 334.377 306.417 337.718C303.076 341.06 298.544 342.937 293.818 342.937C289.092 342.937 284.56 341.06 281.219 337.718C277.877 334.377 276 329.845 276 325.119C276 315.279 292.219 289.919 293.818 289.937Z" fill="#42A0F0"/>
<path d="M280.233 331.779C282.014 332.323 284.276 330.084 285.287 326.778C286.298 323.471 285.674 320.35 283.894 319.806C282.113 319.261 279.85 321.5 278.84 324.806C277.829 328.113 278.453 331.234 280.233 331.779Z" fill="white"/>
<path d="M154.818 211.937C156.418 211.955 172.636 237.278 172.636 247.119C172.636 251.845 170.759 256.377 167.417 259.718C164.076 263.06 159.544 264.937 154.818 264.937C150.092 264.937 145.56 263.06 142.219 259.718C138.877 256.377 137 251.845 137 247.119C137 237.279 153.219 211.919 154.818 211.937Z" fill="#42A0F0"/>
<path d="M141.233 253.779C143.014 254.323 145.276 252.084 146.287 248.778C147.298 245.471 146.674 242.35 144.894 241.806C143.113 241.261 140.85 243.5 139.84 246.806C138.829 250.113 139.453 253.234 141.233 253.779Z" fill="white"/>
<path d="M252.818 211.937C254.418 211.955 270.636 237.278 270.636 247.119C270.636 251.845 268.759 256.377 265.417 259.718C262.076 263.06 257.544 264.937 252.818 264.937C248.092 264.937 243.56 263.06 240.219 259.718C236.877 256.377 235 251.845 235 247.119C235 237.279 251.219 211.919 252.818 211.937Z" fill="#42A0F0"/>
<path d="M239.233 253.779C241.014 254.323 243.276 252.084 244.287 248.778C245.298 245.471 244.674 242.35 242.894 241.806C241.113 241.261 238.85 243.5 237.84 246.806C236.829 250.113 237.453 253.234 239.233 253.779Z" fill="white"/>
<g filter="url(#filter2_d_240_5547)">
<path d="M292.998 278.937H101.566C82.9957 278.923 65.1507 271.726 51.7668 258.852C38.3829 245.978 30.4978 228.426 29.7623 209.87C29.0268 191.314 35.4978 173.193 47.8208 159.301C60.1437 145.408 77.3631 136.821 95.8741 135.337C98.5139 116.697 106.931 99.3537 119.942 85.747C132.952 72.1403 149.902 62.955 168.405 59.4834C186.908 56.0118 206.034 58.4286 223.092 66.3937C240.15 74.3589 254.281 87.4716 263.498 103.887C280.403 98.035 298.668 97.3513 315.964 101.923C333.259 106.495 348.801 116.115 360.606 129.556C372.412 142.997 379.946 159.65 382.248 177.39C384.549 195.131 381.515 213.155 373.53 229.164C368.845 243.627 359.698 256.235 347.402 265.177C335.106 274.119 320.294 278.936 305.09 278.937H292.998Z" fill="url(#paint0_linear_240_5547)"/>
<path d="M305.09 277.937C312.809 277.937 320.399 276.704 327.649 274.273C334.659 271.922 341.241 268.492 347.21 264.077C353.112 259.713 358.284 254.485 362.586 248.539C366.94 242.519 370.302 235.897 372.578 228.856L372.602 228.784L372.636 228.716C375.663 222.668 377.994 216.27 379.564 209.7C381.179 202.94 381.998 195.954 381.998 188.937C381.998 182.897 381.39 176.862 380.19 170.999C379.021 165.285 377.276 159.665 375.005 154.294C372.774 149.021 370.014 143.935 366.799 139.177C363.615 134.464 359.959 130.032 355.931 126.004C351.903 121.976 347.471 118.32 342.758 115.136C338 111.921 332.914 109.161 327.641 106.93C322.27 104.659 316.65 102.914 310.936 101.745C305.073 100.545 299.038 99.9365 292.998 99.9365C282.999 99.9365 273.184 101.582 263.825 104.828L263.036 105.102L262.626 104.373C255.01 90.8312 243.932 79.4586 230.59 71.4848C223.842 67.4522 216.593 64.336 209.044 62.2227C201.255 60.0425 193.165 58.937 184.998 58.937C174.014 58.937 163.291 60.914 153.128 64.8131C143.31 68.5797 134.303 74.0207 126.358 80.985C118.459 87.9092 111.904 96.0792 106.874 105.268C101.722 114.682 98.3537 124.844 96.8643 135.472L96.7529 136.267L95.9521 136.33C86.9939 137.031 78.375 139.39 70.3349 143.34C62.5224 147.179 55.5463 152.371 49.6001 158.771C37.3819 171.924 30.6531 189.06 30.6531 207.024C30.6531 216.597 32.5278 225.884 36.2253 234.626C38.0025 238.828 40.2022 242.88 42.7633 246.671C45.3003 250.426 48.2138 253.957 51.423 257.167C54.6322 260.376 58.1634 263.289 61.9186 265.826C65.7095 268.387 69.7621 270.587 73.9637 272.364C82.7055 276.062 91.9922 277.937 101.566 277.937H292.998H305.09ZM305.09 278.937H292.998H101.566C61.8497 278.937 29.6531 246.74 29.6531 207.024C29.6531 169.223 58.8177 138.234 95.874 135.333C102.003 91.5944 139.57 57.937 184.998 57.937C218.701 57.937 248.075 76.4601 263.498 103.883C272.74 100.678 282.665 98.9365 292.998 98.9365C342.704 98.9365 382.998 139.231 382.998 188.937C382.998 203.396 379.589 217.058 373.53 229.164C364.193 258.046 337.081 278.937 305.09 278.937Z" fill="white" fill-opacity="0.5"/>
</g>
</g>
<defs>
<filter id="filter0_f_240_5547" x="5.64795" y="12.763" width="381.351" height="334.174" filterUnits="userSpaceOnUse" color-interpolation-filters="sRGB">
<feFlood flood-opacity="0" result="BackgroundImageFix"/>
<feBlend mode="normal" in="SourceGraphic" in2="BackgroundImageFix" result="shape"/>
<feGaussianBlur stdDeviation="2" result="effect1_foregroundBlur_240_5547"/>
</filter>
<filter id="filter1_f_240_5547" x="0.577637" y="0.303223" width="164.15" height="133.561" filterUnits="userSpaceOnUse" color-interpolation-filters="sRGB">
<feFlood flood-opacity="0" result="BackgroundImageFix"/>
<feBlend mode="normal" in="SourceGraphic" in2="BackgroundImageFix" result="shape"/>
<feGaussianBlur stdDeviation="10" result="effect1_foregroundBlur_240_5547"/>
</filter>
<filter id="filter2_d_240_5547" x="9.65308" y="29.937" width="413.345" height="281" filterUnits="userSpaceOnUse" color-interpolation-filters="sRGB">
<feFlood flood-opacity="0" result="BackgroundImageFix"/>
<feColorMatrix in="SourceAlpha" type="matrix" values="0 0 0 0 0 0 0 0 0 0 0 0 0 0 0 0 0 0 127 0" result="hardAlpha"/>
<feOffset dx="10" dy="2"/>
<feGaussianBlur stdDeviation="15"/>
<feColorMatrix type="matrix" values="0 0 0 0 0.258824 0 0 0 0 0.627451 0 0 0 0 0.941176 0 0 0 0.596 0"/>
<feBlend mode="normal" in2="BackgroundImageFix" result="effect1_dropShadow_240_5547"/>
<feBlend mode="normal" in="SourceGraphic" in2="effect1_dropShadow_240_5547" result="shape"/>
</filter>
<linearGradient id="paint0_linear_240_5547" x1="206.351" y1="57.9395" x2="308.994" y2="306.103" gradientUnits="userSpaceOnUse">
<stop stop-color="white" stop-opacity="0.604"/>
<stop offset="1" stop-color="white" stop-opacity="0.2"/>
</linearGradient>
</defs>
</svg>
