<svg width="424" height="351" viewBox="0 0 424 351" fill="none" xmlns="http://www.w3.org/2000/svg">
<g filter="url(#filter0_f_240_5183)">
<path d="M108.819 293.001C110.419 293.019 126.637 318.342 126.637 328.183C126.637 332.909 124.76 337.441 121.418 340.782C118.077 344.124 113.545 346.001 108.819 346.001C104.093 346.001 99.5613 344.124 96.2197 340.782C92.8782 337.441 91.001 332.909 91.001 328.183C91.001 318.343 107.22 292.983 108.819 293.001Z" fill="#42A0F0"/>
<path d="M95.2341 334.843C97.0145 335.387 99.2772 333.148 100.288 329.842C101.299 326.536 100.675 323.414 98.8946 322.87C97.1142 322.326 94.8515 324.565 93.8407 327.871C92.8298 331.177 93.4537 334.298 95.2341 334.843Z" fill="white"/>
<path d="M201.819 293.001C203.419 293.019 219.637 318.342 219.637 328.183C219.637 332.909 217.76 337.441 214.418 340.782C211.077 344.124 206.545 346.001 201.819 346.001C197.093 346.001 192.561 344.124 189.22 340.782C185.878 337.441 184.001 332.909 184.001 328.183C184.001 318.343 200.22 292.983 201.819 293.001Z" fill="#42A0F0"/>
<path d="M188.234 334.843C190.015 335.387 192.277 333.148 193.288 329.842C194.299 326.536 193.675 323.414 191.895 322.87C190.114 322.326 187.851 324.565 186.841 327.871C185.83 331.177 186.454 334.298 188.234 334.843Z" fill="white"/>
<path d="M294.819 293.001C296.419 293.019 312.637 318.342 312.637 328.183C312.637 332.909 310.76 337.441 307.418 340.782C304.077 344.124 299.545 346.001 294.819 346.001C290.093 346.001 285.561 344.124 282.22 340.782C278.878 337.441 277.001 332.909 277.001 328.183C277.001 318.343 293.22 292.983 294.819 293.001Z" fill="#42A0F0"/>
<path d="M281.234 334.843C283.015 335.387 285.277 333.148 286.288 329.842C287.299 326.536 286.675 323.414 284.895 322.87C283.114 322.326 280.851 324.565 279.841 327.871C278.83 331.177 279.454 334.298 281.234 334.843Z" fill="white"/>
<path d="M155.819 215.001C157.419 215.019 173.637 240.342 173.637 250.183C173.637 254.909 171.76 259.441 168.418 262.782C165.077 266.124 160.545 268.001 155.819 268.001C151.093 268.001 146.561 266.124 143.22 262.782C139.878 259.441 138.001 254.909 138.001 250.183C138.001 240.343 154.22 214.983 155.819 215.001Z" fill="#42A0F0"/>
<path d="M142.234 256.843C144.015 257.387 146.277 255.148 147.288 251.842C148.299 248.536 147.675 245.414 145.895 244.87C144.114 244.326 141.851 246.565 140.841 249.871C139.83 253.177 140.454 256.298 142.234 256.843Z" fill="white"/>
<path d="M253.819 215.001C255.419 215.019 271.637 240.342 271.637 250.183C271.637 254.909 269.76 259.441 266.418 262.782C263.077 266.124 258.545 268.001 253.819 268.001C249.093 268.001 244.561 266.124 241.22 262.782C237.878 259.441 236.001 254.909 236.001 250.183C236.001 240.343 252.22 214.983 253.819 215.001Z" fill="#42A0F0"/>
<path d="M240.234 256.843C242.015 257.387 244.277 255.148 245.288 251.842C246.299 248.536 245.675 245.414 243.895 244.87C242.114 244.326 239.851 246.565 238.841 249.871C237.83 253.177 238.454 256.298 240.234 256.843Z" fill="white"/>
<path d="M107.268 6.72324C114.278 6.72148 121.27 7.42975 128.137 8.83723C141.39 11.5669 153.974 16.8889 165.164 24.4972C180.667 35.0049 193.053 49.4947 201.021 66.4437C208.989 83.3927 212.244 102.175 210.444 120.817C208.644 139.459 201.856 157.271 190.793 172.383C179.73 187.495 164.801 199.347 147.574 206.695C141.312 209.356 134.8 211.388 128.136 212.76C113.685 215.69 98.7754 215.508 84.4005 212.224C70.0257 208.941 56.5155 202.632 44.77 193.718C33.0244 184.804 23.3132 173.489 16.2832 160.528C9.25319 147.566 5.06578 133.256 3.99992 118.549C15.3314 121.201 27.1023 121.372 38.5059 119.049C48.7389 116.954 58.4592 112.863 67.1119 107.012C79.9742 98.329 90.0422 86.1018 96.0959 71.8122C98.1414 66.9727 99.7027 61.9425 100.757 56.7952C103.004 45.7666 102.921 34.3899 100.513 23.3952C99.3016 17.8975 97.5102 12.5439 95.1689 7.42424C99.185 6.95689 103.225 6.72282 107.268 6.72324Z" fill="#713FFD"/>
<g filter="url(#filter1_f_240_5183)">
<path d="M177.339 38.8963C154.095 17.9668 123.644 13.8915 109.325 29.7939C95.0065 45.6964 102.242 75.5545 125.487 96.484C148.732 117.414 179.182 121.489 193.501 105.586C207.82 89.6839 200.584 59.8258 177.339 38.8963Z" fill="#A586FC"/>
</g>
<g filter="url(#filter2_d_240_5183)">
<path d="M293.999 282.002H102.567C83.9967 281.988 66.1516 274.791 52.7677 261.917C39.3838 249.043 31.4988 231.491 30.7633 212.936C30.0278 194.38 36.4988 176.259 48.8217 162.366C61.1447 148.473 78.3641 139.886 96.8751 138.402C99.5149 119.762 107.932 102.419 120.943 88.8122C133.953 75.2055 150.902 66.0202 169.406 62.5486C187.909 59.077 207.035 61.4938 224.093 69.459C241.151 77.4242 255.282 90.5368 264.499 106.952C281.404 101.1 299.669 100.417 316.965 104.988C334.26 109.56 349.802 119.18 361.607 132.621C373.413 146.062 380.947 162.715 383.249 180.456C385.55 198.196 382.516 216.221 374.531 232.229C369.846 246.693 360.699 259.3 348.403 268.242C336.107 277.184 321.295 282.001 306.091 282.002H293.999Z" fill="url(#paint0_linear_240_5183)"/>
<path d="M306.091 281.002C313.81 281.002 321.4 279.769 328.65 277.338C335.66 274.987 342.242 271.557 348.211 267.142C354.112 262.778 359.285 257.55 363.586 251.605C367.941 245.585 371.303 238.962 373.579 231.921L373.603 231.849L373.637 231.781C376.664 225.733 378.995 219.335 380.565 212.765C382.18 206.005 382.999 199.019 382.999 192.002C382.999 185.963 382.391 179.928 381.191 174.064C380.022 168.35 378.277 162.73 376.006 157.359C373.775 152.086 371.014 147 367.8 142.242C364.616 137.529 360.96 133.097 356.932 129.069C352.904 125.042 348.472 121.385 343.759 118.201C339.001 114.987 333.915 112.226 328.642 109.995C323.271 107.724 317.651 105.979 311.937 104.81C306.074 103.61 300.039 103.002 293.999 103.002C284 103.002 274.185 104.647 264.826 107.893L264.037 108.167L263.627 107.438C256.011 93.8964 244.933 82.5238 231.591 74.55C224.843 70.5174 217.594 67.4012 210.045 65.2879C202.256 63.1077 194.166 62.0022 185.999 62.0022C175.015 62.0022 164.292 63.9792 154.129 67.8782C144.311 71.6449 135.304 77.0859 127.359 84.0502C119.46 90.9744 112.905 99.1444 107.875 108.333C102.723 117.747 99.3546 127.909 97.8653 138.537L97.7539 139.333L96.9531 139.395C87.9948 140.096 79.376 142.455 71.3358 146.405C63.5234 150.244 56.5472 155.436 50.6011 161.837C38.3829 174.989 31.6541 192.125 31.6541 210.089C31.6541 219.663 33.5288 228.949 37.2263 237.691C39.0035 241.893 41.2032 245.945 43.7643 249.736C46.3012 253.491 49.2148 257.023 52.424 260.232C55.6331 263.441 59.1644 266.355 62.9196 268.892C66.7105 271.453 70.7631 273.652 74.9647 275.429C83.7065 279.127 92.9932 281.002 102.567 281.002H293.999H306.091ZM306.091 282.002H293.999H102.567C62.8506 282.002 30.6541 249.805 30.6541 210.089C30.6541 172.288 59.8187 141.299 96.875 138.398C103.004 94.6596 140.571 61.0022 185.999 61.0022C219.702 61.0022 249.076 79.5253 264.499 106.948C273.741 103.743 283.666 102.002 293.999 102.002C343.705 102.002 383.999 142.297 383.999 192.002C383.999 206.461 380.59 220.123 374.531 232.229C365.194 261.111 338.081 282.002 306.091 282.002Z" fill="white" fill-opacity="0.5"/>
</g>
</g>
<defs>
<filter id="filter0_f_240_5183" x="0" y="2.72327" width="388" height="347.278" filterUnits="userSpaceOnUse" color-interpolation-filters="sRGB">
<feFlood flood-opacity="0" result="BackgroundImageFix"/>
<feBlend mode="normal" in="SourceGraphic" in2="BackgroundImageFix" result="shape"/>
<feGaussianBlur stdDeviation="2" result="effect1_foregroundBlur_240_5183"/>
</filter>
<filter id="filter1_f_240_5183" x="81.9736" y="0.0933838" width="138.879" height="135.194" filterUnits="userSpaceOnUse" color-interpolation-filters="sRGB">
<feFlood flood-opacity="0" result="BackgroundImageFix"/>
<feBlend mode="normal" in="SourceGraphic" in2="BackgroundImageFix" result="shape"/>
<feGaussianBlur stdDeviation="10" result="effect1_foregroundBlur_240_5183"/>
</filter>
<filter id="filter2_d_240_5183" x="10.6541" y="33.0022" width="413.345" height="281" filterUnits="userSpaceOnUse" color-interpolation-filters="sRGB">
<feFlood flood-opacity="0" result="BackgroundImageFix"/>
<feColorMatrix in="SourceAlpha" type="matrix" values="0 0 0 0 0 0 0 0 0 0 0 0 0 0 0 0 0 0 127 0" result="hardAlpha"/>
<feOffset dx="10" dy="2"/>
<feGaussianBlur stdDeviation="15"/>
<feColorMatrix type="matrix" values="0 0 0 0 0.258824 0 0 0 0 0.627451 0 0 0 0 0.941176 0 0 0 0.596 0"/>
<feBlend mode="normal" in2="BackgroundImageFix" result="effect1_dropShadow_240_5183"/>
<feBlend mode="normal" in="SourceGraphic" in2="effect1_dropShadow_240_5183" result="shape"/>
</filter>
<linearGradient id="paint0_linear_240_5183" x1="207.352" y1="61.0048" x2="309.995" y2="309.169" gradientUnits="userSpaceOnUse">
<stop stop-color="white" stop-opacity="0.604"/>
<stop offset="1" stop-color="white" stop-opacity="0.2"/>
</linearGradient>
</defs>
</svg>
