<svg width="445" height="385" viewBox="0 0 445 385" fill="none" xmlns="http://www.w3.org/2000/svg">
<g filter="url(#filter0_f_240_5419)">
<path d="M210.333 208.001H278.405L239.272 265.467L285.027 266.333L188.99 380.001L212.26 293.338H169.66L210.333 208.001Z" fill="url(#paint0_linear_240_5419)"/>
<path d="M315.518 268.484H345.405L328.224 293.715L348.313 294.095L306.147 344.001L316.364 305.952H297.664L315.518 268.484Z" fill="url(#paint1_linear_240_5419)"/>
<path d="M108.518 294.001H138.405L121.224 319.232L141.313 319.612L99.147 369.518L109.364 331.469H90.664L108.518 294.001Z" fill="url(#paint2_linear_240_5419)"/>
<path d="M107.268 6.72324C114.278 6.72148 121.27 7.42975 128.137 8.83723C141.39 11.5669 153.974 16.8889 165.164 24.4972C180.667 35.0049 193.053 49.4947 201.021 66.4437C208.989 83.3927 212.244 102.175 210.444 120.817C208.645 139.459 201.856 157.271 190.793 172.383C179.73 187.495 164.801 199.347 147.574 206.695C141.312 209.356 134.8 211.388 128.136 212.76C113.685 215.69 98.7755 215.508 84.4006 212.224C70.0257 208.941 56.5155 202.632 44.77 193.718C33.0245 184.804 23.3133 173.489 16.2833 160.528C9.25325 147.566 5.06584 133.256 3.99998 118.549C15.3315 121.201 27.1024 121.372 38.506 119.049C48.739 116.954 58.4592 112.863 67.112 107.012C79.9743 98.329 90.0423 86.1018 96.096 71.8122C98.1415 66.9727 99.7028 61.9425 100.757 56.7952C103.004 45.7666 102.921 34.3899 100.513 23.3952C99.3017 17.8975 97.5103 12.5439 95.169 7.42424C99.1851 6.95689 103.225 6.72282 107.268 6.72324Z" fill="#713FFD"/>
<g filter="url(#filter1_f_240_5419)">
<path d="M177.339 38.8963C154.095 17.9668 123.644 13.8915 109.325 29.7939C95.0065 45.6964 102.242 75.5545 125.487 96.484C148.732 117.414 179.183 121.489 193.501 105.586C207.82 89.6839 200.584 59.8258 177.339 38.8963Z" fill="#A586FC"/>
</g>
<g filter="url(#filter2_d_240_5419)">
<path d="M314.345 282.002H122.913C104.343 281.988 86.4975 274.791 73.1136 261.917C59.7297 249.043 51.8447 231.491 51.1092 212.936C50.3736 194.38 56.8447 176.259 69.1676 162.366C81.4906 148.473 98.7099 139.886 117.221 138.402C119.861 119.762 128.278 102.419 141.289 88.8122C154.299 75.2055 171.248 66.0202 189.752 62.5486C208.255 59.077 227.381 61.4938 244.439 69.459C261.497 77.4242 275.628 90.5368 284.845 106.952C301.75 101.1 320.015 100.417 337.311 104.988C354.606 109.56 370.148 119.18 381.953 132.621C393.758 146.062 401.293 162.715 403.594 180.456C405.896 198.196 402.861 216.221 394.877 232.229C390.191 246.693 381.044 259.3 368.749 268.242C356.453 277.184 341.641 282.001 326.437 282.002H314.345Z" fill="url(#paint3_linear_240_5419)"/>
<path d="M326.437 281.002C334.156 281.002 341.746 279.769 348.996 277.338C356.006 274.987 362.588 271.557 368.557 267.142C374.458 262.778 379.631 257.55 383.932 251.605C388.287 245.585 391.649 238.962 393.925 231.921L393.949 231.849L393.983 231.781C397.01 225.733 399.341 219.335 400.911 212.765C402.526 206.005 403.345 199.019 403.345 192.002C403.345 185.963 402.737 179.928 401.537 174.064C400.368 168.35 398.623 162.73 396.352 157.359C394.121 152.086 391.36 147 388.146 142.242C384.962 137.529 381.305 133.097 377.278 129.069C373.25 125.042 368.818 121.385 364.105 118.201C359.347 114.987 354.261 112.226 348.988 109.995C343.617 107.724 337.997 105.979 332.283 104.81C326.42 103.61 320.385 103.002 314.345 103.002C304.346 103.002 294.531 104.647 285.172 107.893L284.383 108.167L283.973 107.438C276.357 93.8964 265.279 82.5238 251.937 74.55C245.189 70.5174 237.94 67.4012 230.391 65.2879C222.602 63.1077 214.512 62.0022 206.345 62.0022C195.361 62.0022 184.638 63.9792 174.475 67.8782C164.657 71.6449 155.65 77.0859 147.705 84.0502C139.806 90.9744 133.251 99.1444 128.221 108.333C123.069 117.747 119.701 127.909 118.211 138.537L118.1 139.333L117.299 139.395C108.341 140.096 99.7219 142.455 91.6818 146.405C83.8694 150.244 76.8932 155.436 70.947 161.837C58.7289 174.989 52 192.125 52 210.089C52 219.663 53.8748 228.949 57.5723 237.691C59.3495 241.893 61.5492 245.945 64.1103 249.736C66.6472 253.491 69.5608 257.023 72.7699 260.232C75.9791 263.441 79.5104 266.355 83.2655 268.892C87.0565 271.453 91.109 273.652 95.3107 275.429C104.052 279.127 113.339 281.002 122.913 281.002H314.345H326.437ZM326.437 282.002H314.345H122.913C83.1966 282.002 51 249.805 51 210.089C51 172.288 80.1647 141.299 117.221 138.398C123.35 94.6596 160.917 61.0022 206.345 61.0022C240.048 61.0022 269.422 79.5253 284.845 106.948C294.087 103.743 304.012 102.002 314.345 102.002C364.051 102.002 404.345 142.297 404.345 192.002C404.345 206.461 400.936 220.123 394.877 232.229C385.54 261.111 358.427 282.002 326.437 282.002Z" fill="white" fill-opacity="0.5"/>
</g>
</g>
<defs>
<filter id="filter0_f_240_5419" x="0" y="2.72327" width="408.345" height="381.278" filterUnits="userSpaceOnUse" color-interpolation-filters="sRGB">
<feFlood flood-opacity="0" result="BackgroundImageFix"/>
<feBlend mode="normal" in="SourceGraphic" in2="BackgroundImageFix" result="shape"/>
<feGaussianBlur stdDeviation="2" result="effect1_foregroundBlur_240_5419"/>
</filter>
<filter id="filter1_f_240_5419" x="81.9738" y="0.0933838" width="138.879" height="135.194" filterUnits="userSpaceOnUse" color-interpolation-filters="sRGB">
<feFlood flood-opacity="0" result="BackgroundImageFix"/>
<feBlend mode="normal" in="SourceGraphic" in2="BackgroundImageFix" result="shape"/>
<feGaussianBlur stdDeviation="10" result="effect1_foregroundBlur_240_5419"/>
</filter>
<filter id="filter2_d_240_5419" x="31" y="33.0022" width="413.345" height="281" filterUnits="userSpaceOnUse" color-interpolation-filters="sRGB">
<feFlood flood-opacity="0" result="BackgroundImageFix"/>
<feColorMatrix in="SourceAlpha" type="matrix" values="0 0 0 0 0 0 0 0 0 0 0 0 0 0 0 0 0 0 127 0" result="hardAlpha"/>
<feOffset dx="10" dy="2"/>
<feGaussianBlur stdDeviation="15"/>
<feColorMatrix type="matrix" values="0 0 0 0 0.258824 0 0 0 0 0.627451 0 0 0 0 0.941176 0 0 0 0.596 0"/>
<feBlend mode="normal" in2="BackgroundImageFix" result="effect1_dropShadow_240_5419"/>
<feBlend mode="normal" in="SourceGraphic" in2="effect1_dropShadow_240_5419" result="shape"/>
</filter>
<linearGradient id="paint0_linear_240_5419" x1="216.73" y1="294.001" x2="162.841" y2="274.245" gradientUnits="userSpaceOnUse">
<stop stop-color="#FFD100"/>
<stop offset="1" stop-color="#FFF0AA"/>
</linearGradient>
<linearGradient id="paint1_linear_240_5419" x1="318.329" y1="306.243" x2="294.67" y2="297.57" gradientUnits="userSpaceOnUse">
<stop stop-color="#FFD100"/>
<stop offset="1" stop-color="#FFF0AA"/>
</linearGradient>
<linearGradient id="paint2_linear_240_5419" x1="111.329" y1="331.76" x2="87.67" y2="323.087" gradientUnits="userSpaceOnUse">
<stop stop-color="#FFD100"/>
<stop offset="1" stop-color="#FFF0AA"/>
</linearGradient>
<linearGradient id="paint3_linear_240_5419" x1="227.698" y1="61.0048" x2="330.341" y2="309.169" gradientUnits="userSpaceOnUse">
<stop stop-color="white" stop-opacity="0.604"/>
<stop offset="1" stop-color="white" stop-opacity="0.2"/>
</linearGradient>
</defs>
</svg>
