<svg width="437" height="364" viewBox="0 0 437 364" fill="none" xmlns="http://www.w3.org/2000/svg">
<g filter="url(#filter0_f_240_5359)">
<path d="M150.044 221.773L216.727 328.466" stroke="#42A0F0" stroke-width="9" stroke-linecap="round"/>
<path d="M166.132 247.988L172.652 217.535" stroke="#42A0F0" stroke-width="9" stroke-linecap="round"/>
<path d="M166.132 247.988L135.309 240.875" stroke="#42A0F0" stroke-width="9" stroke-linecap="round"/>
<path d="M201.696 304.89L231.927 312.374" stroke="#42A0F0" stroke-width="9" stroke-linecap="round"/>
<path d="M201.696 304.89L194.583 335.713" stroke="#42A0F0" stroke-width="9" stroke-linecap="round"/>
<path d="M212.936 220.172L153.879 331.268" stroke="#42A0F0" stroke-width="9" stroke-linecap="round"/>
<path d="M198.278 247.212L227.911 237.632" stroke="#42A0F0" stroke-width="9" stroke-linecap="round"/>
<path d="M198.278 247.212L189.026 216.962" stroke="#42A0F0" stroke-width="9" stroke-linecap="round"/>
<path d="M166.781 306.462L175.415 336.384" stroke="#42A0F0" stroke-width="9" stroke-linecap="round"/>
<path d="M166.781 306.462L136.531 315.714" stroke="#42A0F0" stroke-width="9" stroke-linecap="round"/>
<path d="M245.768 273.838L120.028 278.24" stroke="#42A0F0" stroke-width="9" stroke-linecap="round"/>
<path d="M215.022 274.663L238.134 295.536" stroke="#42A0F0" stroke-width="9" stroke-linecap="round"/>
<path d="M215.022 274.663L236.594 251.526" stroke="#42A0F0" stroke-width="9" stroke-linecap="round"/>
<path d="M147.961 277.011L126.365 299.45" stroke="#42A0F0" stroke-width="9" stroke-linecap="round"/>
<path d="M147.961 277.011L124.824 255.44" stroke="#42A0F0" stroke-width="9" stroke-linecap="round"/>
<path d="M316.38 289.187L291.007 346.166" stroke="#42A0F0" stroke-width="6.00313" stroke-linecap="round"/>
<path d="M310.063 303.065L324.387 297.304" stroke="#42A0F0" stroke-width="6.00313" stroke-linecap="round"/>
<path d="M310.063 303.065L304.444 288.424" stroke="#42A0F0" stroke-width="6.00313" stroke-linecap="round"/>
<path d="M296.531 333.453L301.833 347.953" stroke="#42A0F0" stroke-width="6.00313" stroke-linecap="round"/>
<path d="M296.531 333.454L281.891 339.073" stroke="#42A0F0" stroke-width="6.00313" stroke-linecap="round"/>
<path d="M334.468 314.594L272.437 321.11" stroke="#42A0F0" stroke-width="6.00313" stroke-linecap="round"/>
<path d="M319.291 316.063L331.442 325.587" stroke="#42A0F0" stroke-width="6.00313" stroke-linecap="round"/>
<path d="M319.291 316.063L329.161 303.876" stroke="#42A0F0" stroke-width="6.00313" stroke-linecap="round"/>
<path d="M286.208 319.538L276.302 331.379" stroke="#42A0F0" stroke-width="6.00313" stroke-linecap="round"/>
<path d="M286.208 319.538L274.021 309.668" stroke="#42A0F0" stroke-width="6.00313" stroke-linecap="round"/>
<path d="M321.509 342.962L284.85 292.5" stroke="#42A0F0" stroke-width="6.00313" stroke-linecap="round"/>
<path d="M312.649 330.553L310.476 345.838" stroke="#42A0F0" stroke-width="6.00313" stroke-linecap="round"/>
<path d="M312.649 330.553L328.138 333.007" stroke="#42A0F0" stroke-width="6.00313" stroke-linecap="round"/>
<path d="M293.098 303.64L277.89 300.982" stroke="#42A0F0" stroke-width="6.00313" stroke-linecap="round"/>
<path d="M293.098 303.64L295.552 288.151" stroke="#42A0F0" stroke-width="6.00313" stroke-linecap="round"/>
<path d="M107.268 6.72324C114.278 6.72148 121.27 7.42975 128.137 8.83723C141.391 11.5669 153.974 16.8889 165.164 24.4972C180.667 35.0049 193.053 49.4947 201.021 66.4437C208.989 83.3927 212.244 102.175 210.444 120.817C208.645 139.459 201.857 157.271 190.793 172.383C179.73 187.495 164.801 199.347 147.574 206.695C141.312 209.356 134.8 211.388 128.136 212.76C113.685 215.69 98.7755 215.508 84.4007 212.224C70.0258 208.941 56.5156 202.632 44.7701 193.718C33.0246 184.804 23.3133 173.489 16.2833 160.528C9.25331 147.566 5.0659 133.256 4.00005 118.549C15.3315 121.201 27.1025 121.372 38.506 119.049C48.7391 116.954 58.4593 112.863 67.112 107.012C79.9743 98.329 90.0423 86.1018 96.0961 71.8122C98.1416 66.9727 99.7028 61.9425 100.757 56.7952C103.004 45.7666 102.921 34.3899 100.513 23.3952C99.3017 17.8975 97.5104 12.5439 95.1691 7.42424C99.1851 6.95689 103.225 6.72282 107.268 6.72324Z" fill="#713FFD"/>
<g filter="url(#filter1_f_240_5359)">
<path d="M177.339 38.8963C154.095 17.9668 123.644 13.8915 109.325 29.7939C95.0065 45.6964 102.242 75.5545 125.487 96.484C148.732 117.414 179.182 121.489 193.501 105.586C207.82 89.6839 200.584 59.8258 177.339 38.8963Z" fill="#A586FC"/>
</g>
<g filter="url(#filter2_d_240_5359)">
<path d="M306.345 282.002H114.913C96.3426 281.988 78.4975 274.791 65.1136 261.917C51.7297 249.043 43.8447 231.491 43.1092 212.936C42.3736 194.38 48.8447 176.259 61.1676 162.366C73.4906 148.473 90.7099 139.886 109.221 138.402C111.861 119.762 120.278 102.419 133.289 88.8122C146.299 75.2055 163.248 66.0202 181.752 62.5486C200.255 59.077 219.381 61.4938 236.439 69.459C253.497 77.4242 267.628 90.5368 276.845 106.952C293.75 101.1 312.015 100.417 329.31 104.988C346.605 109.559 362.146 119.179 373.952 132.619C385.757 146.06 393.292 162.712 395.594 180.452C397.896 198.192 394.862 216.216 386.879 232.225C382.194 246.69 373.047 259.299 360.751 268.242C348.455 277.184 333.641 282.002 318.437 282.002H306.345Z" fill="url(#paint0_linear_240_5359)"/>
<path d="M318.437 281.002C326.157 281.002 333.748 279.769 340.998 277.338C348.009 274.987 354.59 271.556 360.56 267.141C366.462 262.777 371.635 257.549 375.936 251.603C380.29 245.582 383.652 238.959 385.928 231.917L385.951 231.845L385.985 231.777C389.011 225.73 391.341 219.333 392.911 212.763C394.526 206.002 395.345 199.017 395.345 192.002C395.345 185.963 394.737 179.928 393.537 174.064C392.368 168.35 390.623 162.73 388.352 157.359C386.121 152.086 383.361 147 380.146 142.242C376.962 137.529 373.306 133.097 369.278 129.069C365.25 125.042 360.819 121.385 356.106 118.201C351.348 114.987 346.261 112.226 340.988 109.995C335.617 107.724 329.997 105.979 324.283 104.81C318.42 103.61 312.385 103.002 306.345 103.002C296.346 103.002 286.531 104.647 277.172 107.893L276.383 108.167L275.973 107.438C268.357 93.8965 257.279 82.5239 243.937 74.5501C237.189 70.5175 229.94 67.4012 222.391 65.2879C214.602 63.1077 206.512 62.0022 198.345 62.0022C187.361 62.0022 176.638 63.9792 166.475 67.8782C156.657 71.6449 147.65 77.0859 139.705 84.0502C131.806 90.9744 125.251 99.1444 120.221 108.333C115.069 117.747 111.701 127.909 110.211 138.537L110.1 139.333L109.299 139.395C100.341 140.096 91.7219 142.455 83.6818 146.405C75.8694 150.244 68.8932 155.436 62.947 161.837C50.7289 174.989 44 192.125 44 210.089C44 219.663 45.8748 228.949 49.5723 237.691C51.3495 241.893 53.5491 245.945 56.1102 249.736C58.6472 253.491 61.5607 257.023 64.7699 260.232C67.9791 263.441 71.5104 266.355 75.2655 268.892C79.0565 271.453 83.109 273.652 87.3106 275.429C96.0525 279.127 105.339 281.002 114.913 281.002H306.345H318.437ZM318.437 282.002H306.345H114.913C75.1966 282.002 43 249.805 43 210.089C43 172.288 72.1646 141.299 109.221 138.398C115.35 94.6596 152.917 61.0022 198.345 61.0022C232.048 61.0022 261.422 79.5254 276.845 106.948C286.087 103.743 296.012 102.002 306.345 102.002C356.051 102.002 396.345 142.297 396.345 192.002C396.345 206.458 392.936 220.121 386.879 232.225C377.544 261.11 350.431 282.002 318.437 282.002Z" fill="white" fill-opacity="0.5"/>
</g>
</g>
<defs>
<filter id="filter0_f_240_5359" x="6.10352e-05" y="2.72327" width="400.345" height="352.232" filterUnits="userSpaceOnUse" color-interpolation-filters="sRGB">
<feFlood flood-opacity="0" result="BackgroundImageFix"/>
<feBlend mode="normal" in="SourceGraphic" in2="BackgroundImageFix" result="shape"/>
<feGaussianBlur stdDeviation="2" result="effect1_foregroundBlur_240_5359"/>
</filter>
<filter id="filter1_f_240_5359" x="81.9738" y="0.0933838" width="138.879" height="135.194" filterUnits="userSpaceOnUse" color-interpolation-filters="sRGB">
<feFlood flood-opacity="0" result="BackgroundImageFix"/>
<feBlend mode="normal" in="SourceGraphic" in2="BackgroundImageFix" result="shape"/>
<feGaussianBlur stdDeviation="10" result="effect1_foregroundBlur_240_5359"/>
</filter>
<filter id="filter2_d_240_5359" x="23" y="33.0022" width="413.345" height="281" filterUnits="userSpaceOnUse" color-interpolation-filters="sRGB">
<feFlood flood-opacity="0" result="BackgroundImageFix"/>
<feColorMatrix in="SourceAlpha" type="matrix" values="0 0 0 0 0 0 0 0 0 0 0 0 0 0 0 0 0 0 127 0" result="hardAlpha"/>
<feOffset dx="10" dy="2"/>
<feGaussianBlur stdDeviation="15"/>
<feColorMatrix type="matrix" values="0 0 0 0 0.258824 0 0 0 0 0.627451 0 0 0 0 0.941176 0 0 0 0.596 0"/>
<feBlend mode="normal" in2="BackgroundImageFix" result="effect1_dropShadow_240_5359"/>
<feBlend mode="normal" in="SourceGraphic" in2="effect1_dropShadow_240_5359" result="shape"/>
</filter>
<linearGradient id="paint0_linear_240_5359" x1="219.698" y1="61.0048" x2="322.341" y2="309.169" gradientUnits="userSpaceOnUse">
<stop stop-color="white" stop-opacity="0.604"/>
<stop offset="1" stop-color="white" stop-opacity="0.2"/>
</linearGradient>
</defs>
</svg>
