<svg width="292" height="209" viewBox="0 0 292 209" fill="none" xmlns="http://www.w3.org/2000/svg">
<g filter="url(#filter0_f_240_6197)">
<path d="M149.908 58.6799C149.908 58.6799 140.144 71.9159 132.513 71.4799C122.947 70.9179 121.313 59.3799 112.445 58.6799C103.167 58.8189 102.22 70.7799 92.164 71.4799C83.154 71.3189 79.337 58.8979 70.748 58.6799C62.159 58.4619 53.004 71.4799 53.004 71.4799" stroke="white" stroke-width="16" stroke-linecap="round"/>
<path d="M157.919 132.68C157.919 132.68 143.219 145.916 131.726 145.48C117.326 144.918 114.855 133.38 101.508 132.68C87.538 132.819 86.108 144.78 70.969 145.48C57.403 145.317 51.655 132.897 38.719 132.68C25.783 132.463 12 145.48 12 145.48" stroke="white" stroke-width="16" stroke-linecap="round"/>
<path d="M239.919 183.68C239.919 183.68 225.219 196.916 213.726 196.48C199.326 195.918 196.855 184.38 183.508 183.68C169.538 183.819 168.108 195.78 152.969 196.48C139.403 196.317 133.655 183.897 120.719 183.68C107.783 183.463 94 196.48 94 196.48" stroke="white" stroke-width="16" stroke-linecap="round"/>
<path d="M217.391 13.2819C229.233 13.2661 240.805 16.8188 250.598 23.4769C259.489 29.5042 266.593 37.8151 271.162 47.5363C275.732 57.2575 277.598 68.0301 276.566 78.722C275.534 89.4138 271.641 99.6303 265.296 108.298C258.951 116.965 250.389 123.764 240.509 127.979C229.944 132.454 218.307 133.764 207.011 131.749C195.716 129.734 185.249 124.482 176.883 116.63C165.935 106.379 159.251 92.3793 158.162 77.4209C161.618 78.2309 165.156 78.6393 168.705 78.6379C176.389 78.6343 183.949 76.7019 190.693 73.0179C197.436 69.334 203.147 64.0163 207.301 57.5523C211.456 51.0883 213.922 43.6848 214.472 36.0206C215.023 28.3563 213.641 20.6764 210.453 13.6849C212.756 13.4166 215.073 13.282 217.391 13.2819Z" fill="#713FFD"/>
<g filter="url(#filter1_f_240_6197)">
<path d="M257.582 31.736C244.25 19.7316 226.784 17.394 218.572 26.5149C210.359 35.6358 214.51 52.7614 227.842 64.7659C241.174 76.7703 258.64 79.1079 266.852 69.987C275.065 60.8661 270.914 43.7405 257.582 31.736Z" fill="#A586FC"/>
</g>
</g>
<defs>
<filter id="filter0_f_240_6197" x="0" y="9.2818" width="280.843" height="199.208" filterUnits="userSpaceOnUse" color-interpolation-filters="sRGB">
<feFlood flood-opacity="0" result="BackgroundImageFix"/>
<feBlend mode="normal" in="SourceGraphic" in2="BackgroundImageFix" result="shape"/>
<feGaussianBlur stdDeviation="2" result="effect1_foregroundBlur_240_6197"/>
</filter>
<filter id="filter1_f_240_6197" x="194.355" y="0.951172" width="96.7134" height="94.5995" filterUnits="userSpaceOnUse" color-interpolation-filters="sRGB">
<feFlood flood-opacity="0" result="BackgroundImageFix"/>
<feBlend mode="normal" in="SourceGraphic" in2="BackgroundImageFix" result="shape"/>
<feGaussianBlur stdDeviation="10" result="effect1_foregroundBlur_240_6197"/>
</filter>
</defs>
</svg>
