<?xml version="1.0" standalone="no"?>
<!DOCTYPE svg PUBLIC "-//W3C//DTD SVG 20010904//EN"
 "http://www.w3.org/TR/2001/REC-SVG-20010904/DTD/svg10.dtd">
<svg version="1.0" xmlns="http://www.w3.org/2000/svg"
 width="700.000000pt" height="700.000000pt" viewBox="0 0 700.000000 700.000000"
 preserveAspectRatio="xMidYMid meet">
<metadata>
Created by potrace 1.14, written by Peter Selinger 2001-2017
</metadata>
<g transform="translate(0.000000,700.000000) scale(0.100000,-0.100000)"
fill="#000000" stroke="none">
<path d="M3453 6118 c-42 -11 -96 -65 -109 -109 -6 -20 -9 -179 -9 -399 1
-327 3 -369 19 -400 57 -114 214 -121 285 -12 l25 37 1 365 c1 201 -3 381 -8
400 -24 91 -112 143 -204 118z"/>
<path d="M5190 5397 c-52 -16 -574 -538 -586 -587 -11 -49 -11 -51 -1 -90 24
-93 108 -140 207 -116 51 13 574 535 586 586 11 49 11 51 1 90 -24 92 -115
143 -207 117z"/>
<path d="M1695 5386 c-84 -38 -123 -144 -81 -224 22 -41 529 -543 563 -557 96
-41 218 31 225 132 5 80 -1 88 -281 368 -147 147 -276 272 -285 277 -30 17
-109 19 -141 4z"/>
<path d="M3345 4664 c-326 -47 -598 -208 -788 -464 -346 -468 -301 -1115 107
-1523 192 -193 437 -314 695 -344 589 -69 1134 306 1281 882 67 261 38 546
-80 791 -174 361 -512 607 -910 660 -81 11 -224 10 -305 -2z"/>
<path d="M998 3657 c-50 -13 -87 -45 -106 -91 -34 -83 -2 -174 75 -212 35 -17
67 -18 409 -18 422 0 427 0 478 77 24 36 27 50 24 98 -5 65 -32 107 -88 135
-31 16 -72 18 -397 18 -200 1 -377 -3 -395 -7z"/>
<path d="M5258 3662 c-84 -22 -138 -85 -138 -162 0 -66 39 -125 100 -152 31
-14 729 -18 780 -5 147 38 169 237 33 303 -34 16 -73 18 -400 18 -199 1 -368
0 -375 -2z"/>
<path d="M2195 2397 c-34 -8 -81 -51 -312 -281 -237 -237 -272 -277 -279 -311
-11 -52 -8 -78 12 -120 31 -66 111 -101 186 -82 37 9 77 45 305 271 145 143
269 274 277 291 20 42 25 85 13 120 -30 90 -110 134 -202 112z"/>
<path d="M4691 2387 c-72 -34 -108 -110 -88 -189 9 -38 43 -76 271 -305 144
-145 276 -270 295 -279 126 -60 262 52 228 188 -9 38 -43 76 -271 305 -144
145 -275 269 -292 277 -49 24 -97 25 -143 3z"/>
<path d="M3419 1860 c-25 -13 -45 -35 -61 -67 -23 -48 -23 -48 -23 -418 1
-339 3 -373 20 -408 56 -118 234 -118 290 0 17 35 19 70 20 398 0 198 -3 376
-8 395 -24 100 -144 150 -238 100z"/>
</g>
</svg>
