<?xml version="1.0" standalone="no"?>
<!DOCTYPE svg PUBLIC "-//W3C//DTD SVG 20010904//EN"
 "http://www.w3.org/TR/2001/REC-SVG-20010904/DTD/svg10.dtd">
<svg version="1.0" xmlns="http://www.w3.org/2000/svg"
 width="700.000000pt" height="700.000000pt" viewBox="0 0 700.000000 700.000000"
 preserveAspectRatio="xMidYMid meet">
<metadata>
Created by potrace 1.14, written by Peter Selinger 2001-2017
</metadata>
<g transform="translate(0.000000,700.000000) scale(0.100000,-0.100000)"
fill="#000000" stroke="none">
<path d="M3810 4994 c-23 -4 -122 -22 -160 -29 -41 -8 -178 -59 -233 -86 -184
-92 -353 -241 -462 -407 -1 -1 -34 11 -73 27 -250 103 -517 80 -742 -64 -158
-101 -273 -256 -329 -440 -23 -76 -40 -243 -30 -293 6 -29 4 -31 -40 -43 -180
-49 -356 -176 -468 -339 -328 -479 -82 -1141 482 -1295 89 -24 164 -29 457
-29 157 -1 289 -3 291 -6 5 -5 1 -35 -19 -155 -15 -88 -10 -124 21 -155 36
-35 76 -44 119 -26 43 18 60 48 74 131 23 143 26 160 28 168 1 4 2 15 3 25 1
16 20 17 275 17 151 1 273 -2 271 -5 -2 -3 -6 -30 -10 -60 -4 -30 -8 -57 -10
-61 -2 -3 -6 -36 -10 -75 -7 -82 5 -112 55 -135 69 -33 141 2 156 76 4 18 15
92 19 131 5 42 14 90 21 114 3 13 41 15 274 15 300 1 278 7 260 -70 -5 -22
-12 -67 -15 -100 -4 -33 -9 -68 -10 -77 -6 -29 38 -82 78 -95 31 -11 44 -10
72 1 43 18 63 49 70 111 4 28 14 91 23 140 l17 90 435 1 c464 1 514 4 618 36
281 86 492 322 547 612 17 88 12 252 -10 336 -49 190 -173 365 -336 473 -105
70 -281 127 -390 127 l-42 0 9 53 c5 28 9 122 8 207 0 136 -3 168 -27 262 -88
342 -309 619 -614 772 -67 33 -201 83 -248 92 -25 5 -62 13 -95 20 -30 7 -274
13 -310 8z"/>
</g>
</svg>
