<svg width="22" height="24" viewBox="0 0 22 24" fill="none" xmlns="http://www.w3.org/2000/svg">
<g clip-path="url(#clip0_240_2058)" filter="url(#filter0_di_240_2058)">
<path d="M11.0001 2.84227L6.46259 7.37977C5.56527 8.27719 4.95421 9.42053 4.70668 10.6652C4.45914 11.9099 4.58625 13.2001 5.07193 14.3725C5.55761 15.545 6.38005 16.5471 7.43525 17.2521C8.49046 17.9572 9.73103 18.3335 11.0001 18.3335C12.2692 18.3335 13.5097 17.9572 14.5649 17.2521C15.6201 16.5471 16.4426 15.545 16.9283 14.3725C17.4139 13.2001 17.541 11.9099 17.2935 10.6652C17.046 9.42053 16.4349 8.27719 15.5376 7.37977L11.0001 2.84227ZM11.0001 0.249939L16.8338 6.08361C17.9875 7.23739 18.7733 8.7074 19.0916 10.3077C19.4099 11.9081 19.2465 13.5669 18.6221 15.0744C17.9977 16.5819 16.9402 17.8703 15.5835 18.7768C14.2268 19.6834 12.6318 20.1672 11.0001 20.1672C9.3684 20.1672 7.77335 19.6834 6.41665 18.7768C5.05995 17.8703 4.00252 16.5819 3.3781 15.0744C2.75367 13.5669 2.59029 11.9081 2.90861 10.3077C3.22693 8.7074 4.01266 7.23739 5.16643 6.08361L11.0001 0.249939Z" fill="white"/>
</g>
<defs>
<filter id="filter0_di_240_2058" x="-2.26241" y="0" width="24.2624" height="25.0165" filterUnits="userSpaceOnUse" color-interpolation-filters="sRGB">
<feFlood flood-opacity="0" result="BackgroundImageFix"/>
<feColorMatrix in="SourceAlpha" type="matrix" values="0 0 0 0 0 0 0 0 0 0 0 0 0 0 0 0 0 0 127 0" result="hardAlpha"/>
<feOffset dx="-1.50827" dy="2.26241"/>
<feGaussianBlur stdDeviation="0.377069"/>
<feColorMatrix type="matrix" values="0 0 0 0 0 0 0 0 0 0 0 0 0 0 0 0 0 0 0.1 0"/>
<feBlend mode="normal" in2="BackgroundImageFix" result="effect1_dropShadow_240_2058"/>
<feBlend mode="normal" in="SourceGraphic" in2="effect1_dropShadow_240_2058" result="shape"/>
<feColorMatrix in="SourceAlpha" type="matrix" values="0 0 0 0 0 0 0 0 0 0 0 0 0 0 0 0 0 0 127 0" result="hardAlpha"/>
<feOffset dx="-0.754137" dy="0.754137"/>
<feGaussianBlur stdDeviation="0.754137"/>
<feComposite in2="hardAlpha" operator="arithmetic" k2="-1" k3="1"/>
<feColorMatrix type="matrix" values="0 0 0 0 1 0 0 0 0 1 0 0 0 0 1 0 0 0 0.25 0"/>
<feBlend mode="normal" in2="shape" result="effect2_innerShadow_240_2058"/>
</filter>
<clipPath id="clip0_240_2058">
<rect width="22" height="22" fill="white"/>
</clipPath>
</defs>
</svg>
