<svg width="35" height="35" viewBox="0 0 35 35" fill="none" xmlns="http://www.w3.org/2000/svg">
<g filter="url(#filter0_ii_240_1964)">
<g clip-path="url(#clip0_240_1964)">
<g filter="url(#filter1_dii_240_1964)">
<path d="M17.5001 34.6032L8.21929 25.3223C6.38375 23.4868 5.13373 21.1481 4.62731 18.6021C4.12089 16.0561 4.38082 13.4171 5.37422 11.0189C6.36763 8.6206 8.04989 6.57076 10.2083 5.12858C12.3667 3.68639 14.9043 2.91663 17.5001 2.91663C20.096 2.91663 22.6336 3.68639 24.792 5.12858C26.9504 6.57076 28.6326 8.6206 29.626 11.0189C30.6194 13.4171 30.8794 16.0561 30.3729 18.6021C29.8665 21.1481 28.6165 23.4868 26.781 25.3223L17.5001 34.6032ZM24.7189 23.2603C26.1464 21.8326 27.1186 20.0136 27.5124 18.0334C27.9062 16.0532 27.704 14.0007 26.9313 12.1354C26.1586 10.2702 24.8502 8.67592 23.1715 7.55426C21.4927 6.4326 19.5191 5.83391 17.5001 5.83391C15.4812 5.83391 13.5075 6.4326 11.8288 7.55426C10.1501 8.67592 8.84163 10.2702 8.06896 12.1354C7.29628 14.0007 7.09406 16.0532 7.48787 18.0334C7.88167 20.0136 8.85382 21.8326 10.2814 23.2603L17.5001 30.479L24.7189 23.2603ZM17.5001 18.9582C16.7266 18.9582 15.9847 18.6509 15.4377 18.1039C14.8907 17.5569 14.5835 16.8151 14.5835 16.0415C14.5835 15.268 14.8907 14.5261 15.4377 13.9791C15.9847 13.4321 16.7266 13.1248 17.5001 13.1248C18.2737 13.1248 19.0155 13.4321 19.5625 13.9791C20.1095 14.5261 20.4168 15.268 20.4168 16.0415C20.4168 16.8151 20.1095 17.5569 19.5625 18.1039C19.0155 18.6509 18.2737 18.9582 17.5001 18.9582Z" fill="white"/>
</g>
</g>
</g>
<defs>
<filter id="filter0_ii_240_1964" x="-13.5745" y="-11.3121" width="54.6076" height="54.6076" filterUnits="userSpaceOnUse" color-interpolation-filters="sRGB">
<feFlood flood-opacity="0" result="BackgroundImageFix"/>
<feBlend mode="normal" in="SourceGraphic" in2="BackgroundImageFix" result="shape"/>
<feColorMatrix in="SourceAlpha" type="matrix" values="0 0 0 0 0 0 0 0 0 0 0 0 0 0 0 0 0 0 127 0" result="hardAlpha"/>
<feOffset dx="6.0331" dy="-11.3121"/>
<feGaussianBlur stdDeviation="11.3121"/>
<feComposite in2="hardAlpha" operator="arithmetic" k2="-1" k3="1"/>
<feColorMatrix type="matrix" values="0 0 0 0 0 0 0 0 0 0 0 0 0 0 0 0 0 0 0.2 0"/>
<feBlend mode="normal" in2="shape" result="effect1_innerShadow_240_1964"/>
<feColorMatrix in="SourceAlpha" type="matrix" values="0 0 0 0 0 0 0 0 0 0 0 0 0 0 0 0 0 0 127 0" result="hardAlpha"/>
<feOffset dx="-13.5745" dy="8.29551"/>
<feGaussianBlur stdDeviation="11.3121"/>
<feComposite in2="hardAlpha" operator="arithmetic" k2="-1" k3="1"/>
<feColorMatrix type="matrix" values="0 0 0 0 1 0 0 0 0 1 0 0 0 0 1 0 0 0 1 0"/>
<feBlend mode="normal" in2="effect1_innerShadow_240_1964" result="effect2_innerShadow_240_1964"/>
</filter>
<filter id="filter1_dii_240_1964" x="-39.3648" y="-31.7737" width="107.697" height="113.133" filterUnits="userSpaceOnUse" color-interpolation-filters="sRGB">
<feFlood flood-opacity="0" result="BackgroundImageFix"/>
<feColorMatrix in="SourceAlpha" type="matrix" values="0 0 0 0 0 0 0 0 0 0 0 0 0 0 0 0 0 0 127 0" result="hardAlpha"/>
<feMorphology radius="3.01655" operator="dilate" in="SourceAlpha" result="effect1_dropShadow_240_1964"/>
<feOffset dx="-3.01655" dy="6.0331"/>
<feGaussianBlur stdDeviation="18.8534"/>
<feColorMatrix type="matrix" values="0 0 0 0 0 0 0 0 0 0 0 0 0 0 0 0 0 0 0.1 0"/>
<feBlend mode="normal" in2="BackgroundImageFix" result="effect1_dropShadow_240_1964"/>
<feBlend mode="normal" in="SourceGraphic" in2="effect1_dropShadow_240_1964" result="shape"/>
<feColorMatrix in="SourceAlpha" type="matrix" values="0 0 0 0 0 0 0 0 0 0 0 0 0 0 0 0 0 0 127 0" result="hardAlpha"/>
<feOffset dx="-4.52482" dy="3.01655"/>
<feGaussianBlur stdDeviation="1.50827"/>
<feComposite in2="hardAlpha" operator="arithmetic" k2="-1" k3="1"/>
<feColorMatrix type="matrix" values="0 0 0 0 1 0 0 0 0 1 0 0 0 0 1 0 0 0 0.25 0"/>
<feBlend mode="normal" in2="shape" result="effect2_innerShadow_240_1964"/>
<feColorMatrix in="SourceAlpha" type="matrix" values="0 0 0 0 0 0 0 0 0 0 0 0 0 0 0 0 0 0 127 0" result="hardAlpha"/>
<feOffset dx="1.50827" dy="-2.26241"/>
<feGaussianBlur stdDeviation="2.26241"/>
<feComposite in2="hardAlpha" operator="arithmetic" k2="-1" k3="1"/>
<feColorMatrix type="matrix" values="0 0 0 0 0 0 0 0 0 0 0 0 0 0 0 0 0 0 0.25 0"/>
<feBlend mode="normal" in2="effect2_innerShadow_240_1964" result="effect3_innerShadow_240_1964"/>
</filter>
<clipPath id="clip0_240_1964">
<rect width="35" height="35" fill="white"/>
</clipPath>
</defs>
</svg>
